<svg xmlns="http://www.w3.org/2000/svg" viewBox="0 0 783.55 354.91">
  <g id="bongo-cat">
    <g class="head">
      <path fill="#8A51AB" d="M280.4,221l383.8,62.6a171.4,171.4,0,0,0-9.2-40.5,174,174,0,0,0-28.7-50.5,163.3,163.3,0,0,0,3.2-73.8c-11.6-1.9-42,14.2-44.5,17.5-19.6-24-88.5-52.7-153.7-48.1A78.8,78.8,0,0,0,398,67.1c-9.8,2.9-19,29.7-19.4,33.7a320,320,0,0,0-31.7,23.6c-14,11.8-28.9,24.4-42.5,44.3A173,173,0,0,0,280.4,221Z" />    </g>
    <g class="music">
      <g class="note">        
        <path d="M368.5,46.5c.5,2.1,1.2,3.5,3.8,6.3s5.1,4.3,6.5,7.2a11.1,11.1,0,0,1,.7,2,10.5,10.5,0,0,1-.7,6.5" stroke="#8A51AB" stroke-width="2" fill="none" />
        <line x1="368.5" y1="47.7" x2="367.5" y2="92.8" stroke="#8A51AB" stroke-width="2" />
        <path fill="#8A51AB" d="M368.5,92.8c.1-3.1-4.7-6.3-9-6.3s-8.7,2.7-8.7,5.8,4.8,5.7,8.7,5.8S368.3,95.8,368.5,92.8Z" />
      </g>
    </g>
    <g>
      <polygon fill="#8A51AB" points="25.3 158.5 783.2 293 513 354.9 25.3 158.5" />
    </g>
    <text x="440" y="100" font-family="Verdana" font-size="24" fill="#000" transform="rotate(10 -150,100)">I'm Chi</text>
  </g>
</svg>
